<svg aria-hidden="true" style="position:absolute;width:0;height:0;overflow:hidden" xmlns="http://www.w3.org/2000/svg">
  <defs>
    <symbol id="icon-envelope" viewBox="0 0 40 32">
      <path d="M29 4a3 3 0 0 1 1.8 5.4l-.869.65c-4.162.4-7.65 3.125-9.144 6.863L17.2 19.601a2.007 2.007 0 0 1-2.4 0L1.2 9.401a3 3 0 0 1 1.8-5.4h26zM18.4 21.2l1.65-1.238A10.97 10.97 0 0 0 22.512 28H4c-2.209 0-4-1.794-4-4V11l13.6 10.2a3.993 3.993 0 0 0 4.8 0zM40 21c0 4.969-4.031 9-9 9s-9-4.031-9-9 4.031-9 9-9 9 4.031 9 9zm-6.206-2.706L30 22.088l-1.794-1.794a.992.992 0 0 0-1.413 0 .992.992 0 0 0 0 1.413l2.5 2.5a.992.992 0 0 0 1.413 0l4.5-4.5a.992.992 0 0 0 0-1.413.992.992 0 0 0-1.413 0z"/>
    </symbol>
    <symbol id="icon-mobile" viewBox="0 0 24 32">
      <path d="M19 0H5a4 4 0 0 0-4 4v24a4 4 0 0 0 4 4h14a4 4 0 0 0 4-4V4c0-2.209-1.794-4-4-4zm-7 30c-1.109 0-2-.891-2-2s.891-2 2-2 2 .891 2 2-.887 2-2 2zm7-26v20H5V4h14z"/>
    </symbol>
    <symbol id="icon-profile" viewBox="0 0 36 32">
      <path d="M32 2H4a4 4 0 0 0-4 4v20a4 4 0 0 0 4 4h28a4 4 0 0 0 4-4V6c0-2.209-1.794-4-4-4zM11 8a4 4 0 1 1 0 8 4 4 0 0 1 0-8zm6 16H5c-.553 0-1-.45-1-1a5 5 0 0 1 5-5h4a5 5 0 0 1 5 5c0 .55-.45 1-1 1zm14-4h-8c-.55 0-1-.45-1-1s.45-1 1-1h8c.55 0 1 .45 1 1s-.45 1-1 1zm0-4h-8c-.55 0-1-.45-1-1s.45-1 1-1h8c.55 0 1 .45 1 1s-.45 1-1 1zm0-4h-8c-.55 0-1-.45-1-1s.45-1 1-1h8c.55 0 1 .45 1 1s-.45 1-1 1z"/>
    </symbol>
    <symbol id="icon-send" viewBox="0 0 32 32">
      <path d="m31.975 2.304-4 25.944a2.003 2.003 0 0 1-1.978 1.697 1.99 1.99 0 0 1-.768-.154l-7.663-3.194-3.179 4.768c-.244.417-.65.636-1.088.636-.719 0-1.3-.581-1.3-1.3V24.69c0-.445.148-.877.421-1.227L25.999 6.002 7.643 22.521 1.23 19.846C.527 19.552.05 18.89.003 18.071s.342-1.483 1.004-1.861l28-15.944a1.997 1.997 0 0 1 2.967 2.04z"/>
    </symbol>
    <symbol id="icon-square-check" viewBox="0 0 28 32">
      <path d="M13.238 21.238a1.755 1.755 0 0 1-2.475 0l-4-4a1.75 1.75 0 0 1 0-2.475 1.755 1.755 0 0 1 2.475 0L12 17.526l6.762-6.762c.681-.681 1.794-.681 2.475 0s.681 1.794 0 2.475l-8 8zM0 6a4 4 0 0 1 4-4h20c2.206 0 4 1.791 4 4v20c0 2.206-1.794 4-4 4H4c-2.209 0-4-1.794-4-4V6zm3 0v20c0 .55.447 1 1 1h20c.55 0 1-.45 1-1V6c0-.553-.45-1-1-1H4a1 1 0 0 0-1 1z"/>
    </symbol>
    <symbol id="icon-square-uncheck" viewBox="0 0 28 32">
      <path d="M0 6a4 4 0 0 1 4-4h20c2.206 0 4 1.791 4 4v20c0 2.206-1.794 4-4 4H4c-2.209 0-4-1.794-4-4V6zm3 0v20c0 .55.447 1 1 1h20c.55 0 1-.45 1-1V6c0-.553-.45-1-1-1H4a1 1 0 0 0-1 1z"/>
    </symbol>
    <symbol id="icon-success" viewBox="0 0 32 32">
      <path d="M0 16C0 7.162 7.162 0 16 0s16 7.162 16 16c0 8.837-7.163 16-16 16S0 24.837 0 16zm23.238-2.762c.681-.681.681-1.794 0-2.475s-1.794-.681-2.475 0l-6.762 6.763-2.762-2.762c-.681-.681-1.794-.681-2.475 0s-.681 1.794 0 2.475l4 4a1.755 1.755 0 0 0 2.475 0l8-8z"/>
    </symbol>
    <symbol id="icon-warning" viewBox="0 0 32 32">
      <path d="M31.644 26.063 18.313 3.313c-1.021-1.75-3.596-1.75-4.624 0L.364 26.063c-1.026 1.744.252 3.938 2.308 3.938h26.663c2.047 0 3.329-2.188 2.31-3.938zM14.5 10.5a1.5 1.5 0 0 1 3 0v8c0 .828-.672 1.5-1.444 1.5s-1.556-.669-1.556-1.5v-8zM16 26a1.965 1.965 0 1 1 0-3.93A1.965 1.965 0 0 1 16 26z"/>
    </symbol>
  </defs>
</svg>
